<?xml version="1.0" standalone="no"?>
<!DOCTYPE svg PUBLIC "-//W3C//DTD SVG 20010904//EN"
 "http://www.w3.org/TR/2001/REC-SVG-20010904/DTD/svg10.dtd">
<svg version="1.0" xmlns="http://www.w3.org/2000/svg"
 width="384.000000pt" height="384.000000pt" viewBox="0 0 384.000000 384.000000"
 preserveAspectRatio="xMidYMid meet">
<metadata>
Created by potrace 1.11, written by Peter Selinger 2001-2013
</metadata>
<g transform="translate(0.000000,384.000000) scale(0.100000,-0.100000)"
fill="#000000" stroke="none">
<path d="M1836 3239 c-383 -44 -694 -254 -872 -589 -106 -199 -157 -440 -157
-745 -1 -512 157 -867 494 -1113 113 -82 246 -140 414 -179 120 -27 436 -25
556 5 354 87 578 285 715 632 23 58 45 119 48 136 l7 32 -133 42 c-73 23 -180
57 -238 76 -57 19 -110 34 -116 34 -7 0 -24 -36 -38 -80 -34 -105 -60 -163
-107 -231 -67 -100 -188 -185 -294 -209 -319 -72 -606 84 -710 387 -42 122
-57 219 -62 418 -12 403 45 615 207 778 114 113 236 165 405 173 222 9 418
-99 513 -284 22 -42 43 -92 47 -110 8 -39 -3 -39 225 15 249 58 282 68 287 80
11 27 -83 241 -148 337 -48 72 -155 176 -236 229 -214 142 -504 202 -807 166z"/>
</g>
</svg>
